<?xml version="1.0" encoding="utf-8"?>
<!-- Generator: Adobe Illustrator 16.0.0, SVG Export Plug-In . SVG Version: 6.00 Build 0)  -->
<!DOCTYPE svg PUBLIC "-//W3C//DTD SVG 1.1//EN" "http://www.w3.org/Graphics/SVG/1.1/DTD/svg11.dtd">
<svg version="1.1" id="Layer_1" xmlns="http://www.w3.org/2000/svg" xmlns:xlink="http://www.w3.org/1999/xlink" x="0px" y="0px"
	 width="30px" height="34px" viewBox="0 0 30 34" enable-background="new 0 0 30 34" xml:space="preserve">
<g>
	<path fill="#DDDDDD" d="M18.43,24.938c0,1.138-0.864,2.062-1.929,2.062h-5.572C9.865,27,9,26.076,9,24.938v-5.96
		c0-1.139,0.865-2.063,1.929-2.063h4.714c0.121,0,0.213,0.102,0.213,0.23v0.457c0,0.129-0.092,0.23-0.213,0.23h-4.714
		c-0.589,0-1.071,0.516-1.071,1.145v5.96c0,0.628,0.482,1.144,1.071,1.144h5.572c0.588,0,1.069-0.516,1.069-1.144v-2.292
		c0-0.129,0.095-0.23,0.214-0.23h0.43c0.121,0,0.216,0.102,0.216,0.23V24.938z M21,20.125c0,0.25-0.194,0.459-0.428,0.459
		c-0.114,0-0.223-0.051-0.302-0.137l-1.18-1.26l-4.365,4.67c-0.041,0.043-0.101,0.069-0.154,0.069c-0.054,0-0.114-0.026-0.154-0.069
		l-0.765-0.818c-0.041-0.043-0.066-0.107-0.066-0.164s0.025-0.121,0.066-0.164l4.367-4.67l-1.18-1.26
		c-0.08-0.086-0.126-0.201-0.126-0.322c0-0.252,0.194-0.459,0.428-0.459h3.43C20.806,16,21,16.207,21,16.459V20.125z"/>
</g>
<path fill="#DDDDDD" d="M30,9.563V9.346L19.637,0h-0.329h-1.131H17.17h-1.069H3.27H1.132H0v34h2.201H3.27h23.522h1.069H30V9.563
	L30,9.563z M25.009,10H19V4.417L25.009,10z M3,31V3h13v6.563v2.125V13h11v18H3z"/>
</svg>
